<svg width="18" height="23" viewBox="0 0 18 23" fill="none" xmlns="http://www.w3.org/2000/svg">
<path d="M8.58522 5.175C9.39351 5.175 10.1687 5.4779 10.7402 6.01707C11.3118 6.55623 11.6329 7.2875 11.6329 8.05C11.6329 8.42755 11.5541 8.8014 11.4009 9.15022C11.2477 9.49903 11.0233 9.81596 10.7402 10.0829C10.4572 10.3499 10.1213 10.5617 9.75152 10.7062C9.38175 10.8506 8.98545 10.925 8.58522 10.925C7.77693 10.925 7.00175 10.6221 6.4302 10.0829C5.85865 9.54377 5.53756 8.8125 5.53756 8.05C5.53756 7.2875 5.85865 6.55623 6.4302 6.01707C7.00175 5.4779 7.77693 5.175 8.58522 5.175ZM8.58522 0C10.8484 0 13.019 0.848122 14.6193 2.35779C16.2196 3.86746 17.1187 5.91501 17.1187 8.05C17.1187 14.0875 8.58522 23 8.58522 23C8.58522 23 0.0517578 14.0875 0.0517578 8.05C0.0517578 5.91501 0.950817 3.86746 2.55115 2.35779C4.15149 0.848122 6.32201 0 8.58522 0ZM8.58522 2.3C6.96864 2.3 5.41827 2.9058 4.27517 3.98414C3.13208 5.06247 2.48989 6.525 2.48989 8.05C2.48989 9.2 2.48989 11.5 8.58522 19.2165C14.6806 11.5 14.6806 9.2 14.6806 8.05C14.6806 6.525 14.0384 5.06247 12.8953 3.98414C11.7522 2.9058 10.2018 2.3 8.58522 2.3Z" fill="#545776"/>
</svg>
